<svg id="visual" viewBox="0 0 960 36" width="960" xmlns="http://www.w3.org/2000/svg"
     version="1.1">
    <path d="M0 18L31 22L62 33L93 25L124 20L155 22L186 29L217 26L248 29L279 23L310 19L341 24L372 21L403 32L434 30L465 28L495 27L526 32L557 23L588 18L619 24L650 32L681 21L712 19L743 32L774 28L805 21L836 19L867 26L898 29L929 26L960 22L960 0L929 0L898 0L867 0L836 0L805 0L774 0L743 0L712 0L681 0L650 0L619 0L588 0L557 0L526 0L495 0L465 0L434 0L403 0L372 0L341 0L310 0L279 0L248 0L217 0L186 0L155 0L124 0L93 0L62 0L31 0L0 0Z"
          fill="#081A28" stroke-linecap="square" stroke-linejoin="bevel"></path>
</svg>