<svg id="visual" viewBox="0 0 960 36" width="960" xmlns="http://www.w3.org/2000/svg"
     version="1.1">
    <path d="M0 29L31 19L62 27L93 36L124 31L155 21L186 35L217 26L248 30L279 23L310 24L341 25L372 32L403 17L434 23L465 35L495 20L526 25L557 33L588 22L619 21L650 33L681 28L712 18L743 16L774 18L805 21L836 27L867 33L898 34L929 27L960 34L960 0L929 0L898 0L867 0L836 0L805 0L774 0L743 0L712 0L681 0L650 0L619 0L588 0L557 0L526 0L495 0L465 0L434 0L403 0L372 0L341 0L310 0L279 0L248 0L217 0L186 0L155 0L124 0L93 0L62 0L31 0L0 0Z"
          fill="#081A28" stroke-linecap="square" stroke-linejoin="bevel"></path>
</svg>