<svg id="visual" viewBox="0 0 960 36" width="960" xmlns="http://www.w3.org/2000/svg"
     version="1.1">
    <path d="M0 19L31 24L62 29L93 22L124 29L155 32L186 22L217 24L248 18L279 30L310 33L341 33L372 30L403 20L434 21L465 23L495 33L526 27L557 24L588 19L619 20L650 18L681 19L712 29L743 32L774 28L805 34L836 22L867 23L898 33L929 19L960 22L960 0L929 0L898 0L867 0L836 0L805 0L774 0L743 0L712 0L681 0L650 0L619 0L588 0L557 0L526 0L495 0L465 0L434 0L403 0L372 0L341 0L310 0L279 0L248 0L217 0L186 0L155 0L124 0L93 0L62 0L31 0L0 0Z"
          fill="#081A28" stroke-linecap="square" stroke-linejoin="bevel"></path>
</svg>