<svg id="visual" viewBox="0 0 960 36" width="960" xmlns="http://www.w3.org/2000/svg"
     version="1.1">
    <path d="M0 35L31 36L62 18L93 30L124 20L155 29L186 19L217 17L248 28L279 16L310 17L341 31L372 27L403 23L434 20L465 17L495 28L526 32L557 31L588 22L619 19L650 32L681 22L712 33L743 22L774 33L805 26L836 19L867 28L898 24L929 32L960 19L960 0L929 0L898 0L867 0L836 0L805 0L774 0L743 0L712 0L681 0L650 0L619 0L588 0L557 0L526 0L495 0L465 0L434 0L403 0L372 0L341 0L310 0L279 0L248 0L217 0L186 0L155 0L124 0L93 0L62 0L31 0L0 0Z"
          fill="#081A28" stroke-linecap="square" stroke-linejoin="bevel"></path>
</svg>